<svg width="13" height="14" viewBox="0 0 13 14" fill="none" xmlns="http://www.w3.org/2000/svg">
<path d="M4.80781 11.6452C1.73089 12.5726 1.73089 10.0996 0.500122 9.79045M9.11551 13.5V11.1073C9.13859 10.8125 9.09895 10.5162 8.99921 10.2379C8.89947 9.95971 8.74193 9.70601 8.53705 9.49368C10.4694 9.27729 12.5001 8.54156 12.5001 5.16587C12.5 4.30268 12.1695 3.47258 11.577 2.8474C11.8576 2.0922 11.8377 1.25746 11.5217 0.516565C11.5217 0.516565 10.7955 0.300174 9.11551 1.43159C7.70505 1.04754 6.21827 1.04754 4.80781 1.43159C3.12781 0.300174 2.40166 0.516565 2.40166 0.516565C2.08558 1.25746 2.06575 2.0922 2.34628 2.8474C1.74943 3.47722 1.4186 4.31482 1.4232 5.18442C1.4232 8.53538 3.45397 9.27111 5.38628 9.51223C5.18381 9.72242 5.02767 9.97308 4.928 10.2479C4.82834 10.5227 4.78739 10.8156 4.80781 11.1073V13.5" stroke="#282D33" stroke-linecap="round" stroke-linejoin="round"/>
</svg>
