<svg width="13" height="12" viewBox="0 0 13 12" fill="none" xmlns="http://www.w3.org/2000/svg">
<path d="M8.9 3.97368C9.85478 3.97368 10.7705 4.33966 11.4456 4.9911C12.1207 5.64254 12.5 6.52609 12.5 7.44737V11.5H10.1V7.44737C10.1 7.14028 9.97357 6.84576 9.74853 6.62861C9.52348 6.41147 9.21826 6.28947 8.9 6.28947C8.58174 6.28947 8.27652 6.41147 8.05147 6.62861C7.82643 6.84576 7.7 7.14028 7.7 7.44737V11.5H5.3V7.44737C5.3 6.52609 5.67928 5.64254 6.35442 4.9911C7.02955 4.33966 7.94522 3.97368 8.9 3.97368Z" stroke="#282D33" stroke-linecap="round" stroke-linejoin="round"/>
<path d="M2.9 4.55263H0.5V11.5H2.9V4.55263Z" stroke="#282D33" stroke-linecap="round" stroke-linejoin="round"/>
<path d="M1.7 2.81579C2.36274 2.81579 2.9 2.29738 2.9 1.65789C2.9 1.01841 2.36274 0.5 1.7 0.5C1.03726 0.5 0.5 1.01841 0.5 1.65789C0.5 2.29738 1.03726 2.81579 1.7 2.81579Z" stroke="#282D33" stroke-linecap="round" stroke-linejoin="round"/>
</svg>
