<svg width="13" height="13" viewBox="0 0 13 13" fill="none" xmlns="http://www.w3.org/2000/svg">
<path d="M12.4996 9.48431V11.2908C12.5003 11.4585 12.4659 11.6245 12.3986 11.7781C12.3313 11.9318 12.2325 12.0697 12.1087 12.1831C11.9849 12.2965 11.8387 12.3828 11.6795 12.4365C11.5203 12.4903 11.3517 12.5102 11.1843 12.4951C9.32768 12.2938 7.54426 11.6606 5.97734 10.6465C4.51953 9.72196 3.28356 8.48843 2.3572 7.03351C1.33752 5.46259 0.702945 3.67405 0.504897 1.81277C0.48982 1.64625 0.509649 1.47843 0.563121 1.31998C0.616594 1.16153 0.702539 1.01592 0.815485 0.892439C0.92843 0.768955 1.0659 0.670295 1.21915 0.60274C1.37239 0.535185 1.53805 0.500216 1.70558 0.500058H3.51565C3.80846 0.497182 4.09233 0.600667 4.31435 0.791223C4.53637 0.981779 4.68138 1.24641 4.72236 1.53578C4.79876 2.11389 4.94044 2.68152 5.14471 3.22785C5.22589 3.44338 5.24346 3.67761 5.19534 3.9028C5.14722 4.12799 5.03542 4.33469 4.8732 4.49841L4.10694 5.26315C4.96585 6.77069 6.21655 8.01891 7.72708 8.87612L8.49334 8.11138C8.65739 7.94948 8.8645 7.83791 9.09013 7.78988C9.31577 7.74185 9.55047 7.75939 9.76642 7.8404C10.3138 8.04427 10.8826 8.18567 11.4619 8.26192C11.7549 8.30318 12.0226 8.45052 12.214 8.6759C12.4053 8.90128 12.507 9.18899 12.4996 9.48431Z" stroke="#282D33" stroke-linecap="round" stroke-linejoin="round"/>
</svg>
